<?xml version="1.0" encoding="UTF-8" standalone="no"?>
<!DOCTYPE svg PUBLIC "-//W3C//DTD SVG 1.1//EN" "http://www.w3.org/Graphics/SVG/1.1/DTD/svg11.dtd">
<svg width="100%" height="100%" viewBox="0 0 3508 2481" version="1.1" xmlns="http://www.w3.org/2000/svg" xmlns:xlink="http://www.w3.org/1999/xlink" xml:space="preserve" xmlns:serif="http://www.serif.com/" style="fill-rule:evenodd;clip-rule:evenodd;stroke-linejoin:round;stroke-miterlimit:2;">
    <g transform="matrix(0.811173,0,0,0.811173,981.378,139.515)">
        <path d="M1432.7,726.538L1434.05,726.536C1442.72,726.536 1451.33,726.751 1459.89,727.177C1450.87,726.773 1441.81,726.559 1432.7,726.538Z"/>
    </g>
    <g transform="matrix(1,0,0,1,118.695,1.28305)">
        <path d="M1421.29,922.944C1253.01,930.829 1118.81,1069.94 1118.81,1240.16C1118.81,1415.43 1261.1,1557.72 1436.37,1557.72C1207,1557.72 1020.78,1371.5 1020.78,1142.13C1020.78,913.123 1206.4,727.13 1435.27,726.537L1435.28,727.056L1618.1,727.056L1618.1,727.057C1618.1,835.614 1530.1,923.617 1421.54,923.617L1421.29,923.617L1421.29,922.944Z" style="fill:url(#_Linear1);"/>
    </g>
    <g transform="matrix(1,0,0,1,708.273,2.32481)">
        <path d="M1436.37,922.481L1436.37,922.591C1261.1,922.591 1118.81,1064.89 1118.81,1240.16C1118.81,1415.43 1261.1,1557.72 1436.37,1557.72C1207,1557.72 1020.78,1371.5 1020.78,1142.13C1020.78,920.302 1194.95,738.833 1413.88,727.135L1413.88,727.056L1415.42,727.056C1422,726.729 1428.62,726.555 1435.27,726.537L1435.28,727.056L1637.31,727.056L1637.31,727.057C1637.31,778.886 1616.72,828.593 1580.07,865.242C1543.42,901.891 1493.71,922.481 1441.88,922.481L1436.37,922.481Z" style="fill:url(#_Linear2);"/>
    </g>
    <g transform="matrix(1,0,0,1,708.273,2.32481)">
        <path d="M1435.27,726.537C1442.66,726.555 1450.01,726.729 1457.33,727.056" style="fill:url(#_Linear3);"/>
    </g>
    <g transform="matrix(1,0,0,1,118.694,1.28447)">
        <path d="M1421.29,1751.05C1144.41,1744.27 921.717,1517.37 921.717,1238.87C921.717,956.106 1151.29,726.536 1434.05,726.536L1435.27,726.537C1206.4,727.13 1020.78,913.123 1020.78,1142.13C1020.78,1371.5 1207,1557.72 1436.37,1557.72L1441.76,1557.72C1493.07,1557.72 1542.29,1578.11 1578.57,1614.39C1614.86,1650.68 1635.24,1699.89 1635.24,1751.21L1635.24,1751.21L1421.29,1751.21L1421.29,1751.05Z" style="fill:url(#_Linear4);"/>
    </g>
    <g transform="matrix(1,0,0,1,707.753,1.80464)">
        <path d="M1413.88,1750.82C1140.45,1740.21 921.717,1514.88 921.717,1238.87C921.717,956.106 1151.29,726.536 1434.05,726.536L1435.27,726.537C1206.4,727.13 1020.78,913.123 1020.78,1142.13C1020.78,1371.5 1207,1557.72 1436.37,1557.72L1443.82,1557.72C1550.68,1557.72 1637.31,1644.35 1637.31,1751.21L1637.31,1751.21L1413.88,1751.21L1413.88,1750.82Z" style="fill:url(#_Linear5);"/>
    </g>
    <g transform="matrix(1.03578,0,0,1.00715,-397.197,-3.38991)">
        <path d="M1490.47,1062.2C1524.21,873.529 1677.92,730.184 1863.29,726.604C1865.66,726.559 1868.03,726.536 1870.4,726.536C1875.89,726.536 1881.35,726.658 1886.78,726.901C1738.02,737.217 1620.11,874.264 1620.11,1041.68C1620.11,1052.69 1620.62,1063.57 1621.62,1074.29C1594.07,1121.58 1578.23,1176.9 1578.23,1236C1578.23,1410.02 1715.61,1551.31 1884.82,1551.31C1663.63,1551.31 1484,1366.84 1483.59,1139.45C1483.63,1113.05 1486,1087.22 1490.47,1062.2Z" style="fill-opacity:0.15;"/>
    </g>
    <g transform="matrix(1.03578,0,0,1.00715,192.382,-2.34957)">
        <path d="M1884.82,1551.31C1663.63,1551.31 1484,1366.84 1483.59,1139.45C1483.63,1113.05 1486,1087.22 1490.47,1062.2C1524.21,873.529 1677.92,730.184 1863.29,726.604C1865.66,726.559 1868.03,726.536 1870.4,726.536C1875.89,726.536 1881.35,726.658 1886.78,726.901C1738.02,737.217 1620.11,874.264 1620.11,1041.68C1620.11,1052.69 1620.62,1063.57 1621.62,1074.29C1594.07,1121.58 1578.23,1176.9 1578.23,1236C1578.23,1410.02 1715.61,1551.31 1884.82,1551.31" style="fill-opacity:0.15;"/>
    </g>
    <defs>
        <linearGradient id="_Linear1" x1="0" y1="0" x2="1" y2="0" gradientUnits="userSpaceOnUse" gradientTransform="matrix(925.614,0,0,925.614,1020.78,1234.75)"><stop offset="0" style="stop-color:rgb(255,16,0);stop-opacity:1"/><stop offset="1" style="stop-color:rgb(255,221,0);stop-opacity:1"/></linearGradient>
        <linearGradient id="_Linear2" x1="0" y1="0" x2="1" y2="0" gradientUnits="userSpaceOnUse" gradientTransform="matrix(925.614,0,0,925.614,1020.78,1234.75)"><stop offset="0" style="stop-color:rgb(255,16,0);stop-opacity:1"/><stop offset="1" style="stop-color:rgb(255,221,0);stop-opacity:1"/></linearGradient>
        <linearGradient id="_Linear3" x1="0" y1="0" x2="1" y2="0" gradientUnits="userSpaceOnUse" gradientTransform="matrix(925.614,0,0,925.614,1020.78,1234.75)"><stop offset="0" style="stop-color:rgb(255,16,0);stop-opacity:1"/><stop offset="1" style="stop-color:rgb(255,221,0);stop-opacity:1"/></linearGradient>
        <linearGradient id="_Linear4" x1="0" y1="0" x2="1" y2="0" gradientUnits="userSpaceOnUse" gradientTransform="matrix(846.804,0,0,933.12,921.717,1238.87)"><stop offset="0" style="stop-color:rgb(255,221,0);stop-opacity:1"/><stop offset="1" style="stop-color:rgb(255,16,0);stop-opacity:1"/></linearGradient>
        <linearGradient id="_Linear5" x1="0" y1="0" x2="1" y2="0" gradientUnits="userSpaceOnUse" gradientTransform="matrix(846.804,0,0,933.12,921.717,1238.87)"><stop offset="0" style="stop-color:rgb(255,221,0);stop-opacity:1"/><stop offset="1" style="stop-color:rgb(255,16,0);stop-opacity:1"/></linearGradient>
    </defs>
</svg>
